<?xml version="1.0" standalone="no"?>
<!DOCTYPE svg PUBLIC "-//W3C//DTD SVG 20010904//EN"
 "http://www.w3.org/TR/2001/REC-SVG-20010904/DTD/svg10.dtd">
<svg version="1.0" xmlns="http://www.w3.org/2000/svg"
 width="179.000000pt" height="179.000000pt" viewBox="0 0 179.000000 179.000000"
 preserveAspectRatio="xMidYMid meet">

<g transform="translate(0.000000,179.000000) scale(0.100000,-0.100000)"
fill="#000000" stroke="none">
<path d="M840 1494 c-160 -34 -303 -143 -373 -284 -21 -40 -37 -78 -37 -85 0
-7 -12 -16 -26 -19 -34 -9 -111 -89 -119 -125 -11 -51 26 -153 90 -248 78
-116 235 -272 360 -359 86 -60 196 -100 246 -89 35 8 116 84 124 117 4 17 19
28 54 41 164 58 297 218 336 403 18 87 18 131 0 219 -45 216 -214 385 -430
430 -85 18 -140 18 -225 -1z m229 -50 c187 -46 329 -188 375 -375 37 -153 2
-304 -102 -436 -44 -55 -136 -122 -207 -149 l-46 -17 -97 96 c-110 110 -129
117 -185 67 -19 -16 -42 -30 -52 -30 -22 0 -155 133 -155 155 0 10 14 33 30
52 49 55 43 73 -67 184 l-96 98 17 46 c90 234 344 368 585 309z m-552 -476
c51 -51 93 -97 93 -103 0 -6 -13 -24 -30 -40 -17 -16 -30 -39 -30 -52 0 -78
145 -223 223 -223 13 0 36 13 52 30 16 17 34 30 40 30 6 0 52 -42 104 -94 104
-104 105 -109 36 -162 -43 -32 -73 -29 -172 21 -210 106 -473 405 -500 569 -5
32 -1 40 35 76 22 22 43 40 48 40 5 0 50 -42 101 -92z"/>
<path d="M775 1193 c-48 -12 -78 -73 -35 -73 11 0 23 6 26 14 8 21 34 28 50
15 26 -21 15 -54 -32 -99 -44 -44 -74 -88 -74 -110 0 -7 28 -10 83 -8 76 3 82
5 85 26 3 20 -1 22 -42 22 -25 0 -46 3 -46 6 0 4 20 29 45 55 32 34 45 57 45
77 0 52 -50 87 -105 75z"/>
<path d="M967 1117 c-31 -45 -57 -92 -57 -104 0 -19 6 -22 53 -25 48 -3 52 -5
52 -28 0 -18 6 -26 23 -28 19 -3 22 1 22 27 0 24 4 31 20 31 12 0 20 7 20 16
0 9 -9 18 -20 21 -18 5 -20 14 -20 89 0 113 -16 113 -93 1z m51 -44 c-3 -33
-7 -38 -30 -41 -34 -4 -34 -1 -5 43 29 45 39 44 35 -2z"/>
<path d="M1060 825 c0 -37 4 -65 10 -65 6 0 10 14 10 30 0 25 4 30 24 30 19 0
25 -6 28 -27 2 -14 9 -28 16 -31 9 -3 12 14 12 62 0 53 -3 66 -16 66 -10 0
-14 -7 -12 -22 2 -19 -2 -24 -24 -26 -24 -3 -28 0 -28 22 0 14 -4 26 -10 26
-6 0 -10 -28 -10 -65z"/>
<path d="M1190 831 c0 -33 5 -63 10 -66 6 -4 10 7 10 24 0 40 20 40 49 1 26
-36 48 -30 24 6 -13 20 -14 27 -4 33 7 5 11 19 9 32 -3 21 -9 24 -50 27 l-48
3 0 -60z m78 27 c-7 -20 -58 -23 -58 -4 0 11 10 16 31 16 20 0 29 -4 27 -12z"/>
</g>
</svg>
