<?xml version="1.0" standalone="no"?>
<!DOCTYPE svg PUBLIC "-//W3C//DTD SVG 20010904//EN"
 "http://www.w3.org/TR/2001/REC-SVG-20010904/DTD/svg10.dtd">
<svg version="1.0" xmlns="http://www.w3.org/2000/svg"
 width="512.000000pt" height="512.000000pt" viewBox="0 0 512.000000 512.000000"
 preserveAspectRatio="xMidYMid meet">

<g transform="translate(0.000000,512.000000) scale(0.100000,-0.100000)"
fill="#000000" stroke="none">
<path d="M2430 5114 c-314 -36 -534 -114 -767 -270 -355 -238 -592 -593 -685
-1024 -33 -154 -33 -421 0 -569 101 -452 429 -1198 925 -2106 245 -450 642
-1135 657 -1135 15 0 412 685 657 1135 496 908 824 1654 925 2106 33 148 33
415 0 569 -93 431 -330 786 -685 1024 -198 133 -388 209 -632 252 -80 14 -329
26 -395 18z m314 -375 c513 -68 942 -483 1042 -1008 20 -101 22 -323 5 -422
-88 -517 -474 -916 -991 -1026 -118 -25 -362 -25 -480 0 -519 111 -906 512
-992 1031 -17 104 -14 314 6 421 107 555 573 974 1128 1014 105 7 168 5 282
-10z"/>
<path d="M2361 4190 c-51 -4 -108 -11 -127 -15 l-34 -6 0 -724 0 -725 95 0 95
0 0 293 0 292 126 -3 c150 -4 241 13 343 64 155 77 241 217 241 394 0 159 -72
293 -195 366 -99 58 -320 84 -544 64z m374 -170 c121 -46 182 -146 173 -284
-8 -127 -71 -213 -187 -257 -63 -24 -190 -35 -275 -25 l-56 7 0 289 0 289 38
4 c20 3 84 4 142 2 80 -2 119 -8 165 -25z"/>
</g>
</svg>
