<?xml version="1.0" standalone="no"?>
<!DOCTYPE svg PUBLIC "-//W3C//DTD SVG 20010904//EN"
 "http://www.w3.org/TR/2001/REC-SVG-20010904/DTD/svg10.dtd">
<svg version="1.0" xmlns="http://www.w3.org/2000/svg"
 width="512.000000pt" height="512.000000pt" viewBox="0 0 512.000000 512.000000"
 preserveAspectRatio="xMidYMid meet">

<g transform="translate(0.000000,512.000000) scale(0.100000,-0.100000)"
fill="#000000" stroke="none">
<path d="M3554 4131 c-18 -11 -44 -35 -59 -55 -55 -73 -55 -61 -55 -1069 0
-773 -2 -928 -14 -933 -24 -9 -147 26 -215 61 -36 19 -115 77 -174 128 -165
142 -274 200 -413 220 -141 21 -323 -40 -462 -154 -35 -28 -67 -47 -72 -43 -4
5 -135 254 -290 554 -155 300 -294 562 -308 583 -14 21 -46 50 -71 65 l-46 27
-420 3 -420 3 -55 -28 c-46 -24 -59 -37 -82 -82 -23 -45 -28 -67 -28 -131 0
-102 31 -168 98 -208 l47 -27 280 -3 c154 -1 290 -5 302 -7 16 -4 40 -39 88
-130 37 -69 65 -132 62 -139 -3 -7 -112 -71 -243 -142 -178 -97 -259 -134
-320 -151 -126 -33 -230 -91 -327 -181 -49 -47 -57 -70 -31 -96 25 -26 49 -19
106 30 126 108 238 155 368 156 140 0 243 -47 401 -185 122 -106 191 -152 283
-189 75 -30 90 -32 196 -32 106 0 121 2 196 32 89 36 182 98 294 197 144 128
251 176 390 177 140 0 243 -47 401 -185 122 -106 191 -152 283 -189 75 -30 90
-32 196 -32 106 0 121 2 196 32 89 36 182 98 294 197 144 128 251 176 390 177
129 0 241 -47 368 -156 57 -49 81 -56 106 -30 26 26 18 49 -31 96 -83 77 -191
142 -280 168 l-43 13 0 726 c0 680 2 729 19 766 46 103 97 71 123 -78 14 -75
22 -87 59 -87 23 0 32 6 40 27 24 65 -31 230 -91 273 -65 46 -128 34 -188 -34
-51 -59 -63 -117 -69 -343 l-6 -203 -393 0 -394 0 0 203 c0 158 3 214 16 249
17 53 46 83 69 74 22 -8 55 -86 62 -149 7 -63 17 -77 54 -77 39 0 53 29 45 94
-9 72 -24 114 -58 163 -48 72 -113 91 -174 54z m-2184 -729 c32 -17 63 -72
339 -606 347 -672 325 -595 192 -664 -103 -53 -197 -70 -289 -53 -119 22 -201
68 -350 197 -102 88 -171 134 -257 168 -30 13 -58 26 -61 28 -5 5 345 198 359
198 4 0 25 -36 47 -80 36 -72 61 -100 89 -100 16 0 41 30 41 49 0 19 -226 462
-266 521 -49 73 -54 74 -387 80 l-299 5 -29 33 c-26 29 -29 39 -29 101 0 60 4
74 25 100 14 16 36 32 48 34 12 2 195 5 407 6 357 1 388 0 420 -17z m2960
-132 l0 -150 -395 0 -395 0 0 150 0 150 395 0 395 0 0 -150z m0 -395 l0 -145
-395 0 -395 0 0 145 0 145 395 0 395 0 0 -145z m0 -319 l0 -65 -57 -6 c-146
-16 -266 -78 -423 -215 -41 -36 -97 -81 -125 -100 -49 -33 -148 -79 -172 -80
-10 0 -13 60 -13 265 l0 265 395 0 395 0 0 -64z"/>
<path d="M2202 3399 c-116 -23 -217 -101 -270 -209 -24 -49 -27 -66 -27 -155
0 -91 3 -105 30 -159 38 -76 100 -137 173 -173 51 -25 68 -28 157 -28 87 0
107 3 156 26 112 53 179 138 205 260 25 122 -5 231 -91 327 -77 85 -222 134
-333 111z m174 -118 c99 -44 157 -131 157 -240 1 -154 -110 -271 -257 -271
-87 0 -132 16 -184 63 -161 149 -103 406 106 463 55 16 120 10 178 -15z"/>
<path d="M703 1980 c-105 -21 -239 -92 -334 -178 -61 -55 -71 -79 -43 -106 25
-26 49 -19 106 30 126 108 238 155 368 156 140 0 243 -47 401 -185 122 -106
191 -152 283 -189 75 -30 90 -32 196 -32 106 0 121 2 196 32 89 36 182 98 294
197 144 128 251 176 390 177 140 0 243 -47 401 -185 122 -106 191 -152 283
-189 75 -30 90 -32 196 -32 106 0 121 2 196 32 89 36 182 98 294 197 144 128
251 176 390 177 129 0 241 -47 368 -156 30 -25 62 -46 72 -46 24 0 50 26 50
50 0 23 -100 114 -174 159 -266 160 -503 127 -774 -110 -104 -91 -193 -150
-271 -180 -79 -31 -223 -31 -302 0 -78 30 -167 89 -271 180 -98 86 -168 131
-260 168 -217 88 -424 35 -656 -168 -104 -91 -193 -150 -271 -180 -79 -31
-223 -31 -302 0 -78 30 -167 89 -271 180 -196 172 -375 236 -555 201z"/>
<path d="M703 1480 c-105 -21 -239 -92 -334 -178 -61 -55 -71 -79 -43 -106 25
-26 49 -19 106 30 126 108 238 155 368 156 140 0 243 -47 401 -185 122 -106
191 -152 283 -189 75 -30 90 -32 196 -32 106 0 121 2 196 32 89 36 182 98 294
197 144 128 251 176 390 177 140 0 243 -47 401 -185 122 -106 191 -152 283
-189 75 -30 90 -32 196 -32 106 0 121 2 196 32 89 36 182 98 294 197 144 128
251 176 390 177 129 0 241 -47 368 -156 30 -25 62 -46 72 -46 24 0 50 26 50
50 0 23 -100 114 -174 159 -266 160 -503 127 -774 -110 -104 -91 -193 -150
-271 -180 -79 -31 -223 -31 -302 0 -78 30 -167 89 -271 180 -98 86 -168 131
-260 168 -217 88 -424 35 -656 -168 -104 -91 -193 -150 -271 -180 -79 -31
-223 -31 -302 0 -78 30 -167 89 -271 180 -196 172 -375 236 -555 201z"/>
</g>
</svg>
