<?xml version="1.0" standalone="no"?>
<!DOCTYPE svg PUBLIC "-//W3C//DTD SVG 20010904//EN"
 "http://www.w3.org/TR/2001/REC-SVG-20010904/DTD/svg10.dtd">
<svg version="1.0" xmlns="http://www.w3.org/2000/svg"
 width="219.000000pt" height="230.000000pt" viewBox="0 0 219.000000 230.000000"
 preserveAspectRatio="xMidYMid meet">

<g transform="translate(0.000000,230.000000) scale(0.100000,-0.100000)"
fill="#000000" stroke="none">
<path d="M1005 2178 c-83 -30 -163 -114 -183 -193 -6 -22 -13 -91 -17 -152 -5
-98 -4 -118 13 -155 10 -24 27 -50 36 -58 20 -16 66 -113 66 -139 0 -32 -94
-96 -265 -181 -204 -102 -215 -114 -215 -225 0 -42 5 -78 13 -87 30 -39 249
-83 482 -99 245 -16 507 5 705 56 107 27 110 31 110 134 l0 89 -45 40 c-27 24
-96 63 -175 98 -140 64 -243 135 -248 173 -5 31 21 92 62 146 47 61 61 115 47
180 -5 27 -13 88 -16 135 -3 47 -11 102 -17 123 -12 41 -58 87 -88 87 -10 0
-37 9 -61 20 -49 22 -153 26 -204 8z"/>
<path d="M495 1975 c-5 -2 -22 -6 -37 -9 -34 -8 -94 -59 -114 -98 -9 -17 -17
-69 -20 -126 l-5 -97 36 -55 c53 -82 54 -89 11 -126 -21 -18 -63 -44 -94 -59
-31 -15 -76 -36 -99 -47 -76 -36 -93 -59 -93 -127 0 -47 4 -62 18 -69 27 -15
141 -40 208 -48 l61 -6 6 42 c9 67 59 111 214 186 72 35 136 64 142 64 21 0
11 16 -23 34 -19 10 -44 29 -56 41 -20 21 -20 25 -7 56 8 19 26 52 41 74 27
39 28 43 21 140 -7 111 -19 168 -38 182 -29 22 -149 56 -172 48z"/>
<path d="M1626 1965 c-95 -34 -125 -80 -138 -212 l-9 -94 40 -68 c23 -37 41
-74 41 -83 0 -17 -73 -88 -90 -88 -30 0 2 -22 98 -68 136 -64 194 -108 216
-162 9 -22 16 -49 16 -60 0 -16 7 -20 33 -20 45 0 151 18 220 37 l57 16 0 67
c0 83 -9 92 -142 154 -101 48 -168 97 -168 124 0 9 18 46 41 83 l41 68 -12
113 c-14 139 -24 155 -111 185 -76 26 -82 26 -133 8z"/>
<path d="M1906 854 c-25 -62 -37 -71 -100 -79 -31 -3 -56 -10 -56 -15 0 -5 18
-23 40 -40 43 -34 48 -57 31 -132 -5 -21 -6 -38 -2 -38 3 0 29 13 57 29 l51
28 57 -29 c63 -32 63 -32 46 52 -8 44 -8 46 37 92 l46 47 -62 7 -62 7 -30 58
c-16 33 -30 59 -32 59 -1 0 -10 -21 -21 -46z"/>
<path d="M235 781 l-28 -60 -64 -7 -65 -7 47 -47 47 -48 -10 -59 c-5 -32 -8
-60 -6 -62 1 -2 27 10 57 27 l54 30 53 -29 c29 -16 55 -27 58 -25 2 3 -2 30
-8 61 l-12 57 47 48 46 47 -63 9 -63 9 -27 54 c-15 30 -29 56 -31 57 -2 2 -16
-23 -32 -55z"/>
<path d="M618 596 c-26 -53 -29 -55 -75 -61 -80 -11 -81 -11 -32 -63 l45 -47
-9 -53 c-6 -29 -7 -55 -4 -58 3 -3 28 6 55 21 l49 27 53 -27 c28 -14 54 -24
57 -21 3 2 1 28 -4 58 l-10 53 45 47 c50 52 53 48 -41 63 -34 5 -41 12 -64 61
-15 29 -30 54 -33 54 -3 0 -18 -24 -32 -54z"/>
<path d="M1517 595 c-25 -52 -28 -54 -74 -60 -80 -11 -81 -12 -33 -60 41 -42
42 -45 36 -92 -4 -26 -10 -56 -13 -66 -4 -16 5 -14 54 14 l59 33 57 -31 c31
-17 57 -28 57 -24 0 4 -5 33 -11 65 l-10 57 48 43 c53 48 53 48 -38 61 -43 5
-47 9 -69 56 -13 28 -27 52 -30 54 -4 2 -18 -20 -33 -50z"/>
<path d="M1068 446 l-27 -54 -60 -7 c-34 -4 -61 -10 -61 -13 0 -3 19 -25 41
-49 l42 -42 -10 -60 c-5 -34 -8 -61 -7 -61 2 0 29 12 60 27 l56 28 50 -28 c28
-16 52 -26 55 -24 2 3 -1 31 -7 64 l-11 58 46 44 c26 24 45 44 43 45 -2 2 -30
7 -63 12 l-60 9 -24 53 c-14 28 -27 52 -31 52 -3 0 -18 -24 -32 -54z"/>
</g>
</svg>
