<?xml version="1.0" standalone="no"?>
<!DOCTYPE svg PUBLIC "-//W3C//DTD SVG 20010904//EN"
 "http://www.w3.org/TR/2001/REC-SVG-20010904/DTD/svg10.dtd">
<svg version="1.0" xmlns="http://www.w3.org/2000/svg"
 width="512.000000pt" height="512.000000pt" viewBox="0 0 512.000000 512.000000"
 preserveAspectRatio="xMidYMid meet">

<g transform="translate(0.000000,512.000000) scale(0.100000,-0.100000)"
fill="#000000" stroke="none">
<path d="M1103 3982 c-93 -33 -168 -111 -193 -202 -6 -22 -10 -389 -10 -971 0
-1072 -6 -994 89 -1090 92 -92 71 -89 677 -89 l522 0 161 -245 c103 -157 170
-250 186 -257 47 -21 67 0 236 257 l161 245 522 0 c606 0 585 -3 677 89 96 96
90 16 87 1112 l-3 954 -23 42 c-35 66 -79 110 -140 140 l-57 28 -1420 2
c-1343 2 -1423 2 -1472 -15z m2904 -148 c15 -11 38 -36 51 -54 l22 -33 0 -930
c0 -928 0 -929 -21 -967 -12 -21 -38 -47 -59 -59 -37 -21 -46 -21 -580 -21
-323 0 -548 -4 -559 -10 -10 -5 -80 -104 -155 -220 -76 -115 -142 -210 -146
-210 -4 0 -70 95 -146 210 -75 116 -145 215 -155 220 -11 6 -236 10 -559 10
-534 0 -543 0 -580 21 -21 12 -47 38 -59 59 -21 38 -21 39 -21 964 0 999 -2
953 52 1003 12 12 34 26 48 32 16 6 511 9 1432 8 l1407 -2 28 -21z"/>
<path d="M1952 3500 c-28 -17 -48 -51 -117 -193 l-83 -173 -164 -23 c-90 -12
-179 -27 -198 -32 -70 -17 -113 -93 -96 -166 4 -18 55 -75 147 -163 l140 -136
-30 -178 c-17 -98 -31 -188 -31 -200 0 -60 70 -126 134 -126 17 0 99 37 200
89 l171 90 170 -89 c94 -49 183 -90 198 -90 71 0 137 59 137 125 0 17 -14 108
-30 204 l-30 174 130 125 c72 68 137 137 145 153 25 48 19 103 -16 143 -37 43
-55 48 -262 77 l-164 23 -87 173 c-69 139 -93 177 -119 193 -42 26 -103 26
-145 0z m162 -303 c64 -128 87 -166 112 -179 23 -14 331 -68 382 -68 4 0 -55
-62 -131 -138 -123 -123 -139 -143 -143 -178 -3 -21 9 -113 25 -204 16 -91 28
-166 26 -168 -1 -2 -72 34 -156 80 -205 110 -201 110 -406 0 -84 -45 -154 -82
-156 -82 -2 0 9 79 26 176 18 109 27 188 22 211 -5 28 -32 60 -141 166 -75 72
-132 133 -127 134 4 1 84 14 177 28 101 15 181 32 200 42 25 14 49 53 116 185
46 92 87 165 89 162 2 -2 41 -77 85 -167z"/>
<path d="M3013 3420 c-44 -18 -54 -78 -17 -114 13 -14 50 -16 253 -16 218 0
239 2 254 18 26 29 22 77 -9 101 -25 20 -39 21 -243 20 -119 0 -226 -4 -238
-9z"/>
<path d="M3010 3057 c-38 -19 -49 -61 -23 -95 l20 -27 388 -3 c431 -3 425 -3
425 62 -1 75 -6 76 -422 76 -271 0 -369 -3 -388 -13z"/>
<path d="M2995 2685 c-30 -30 -31 -54 -4 -89 l20 -26 388 0 c363 0 389 1 404
18 17 19 22 68 9 88 -21 31 -54 34 -422 34 l-371 0 -24 -25z"/>
<path d="M2995 2325 c-30 -30 -31 -54 -4 -89 l20 -26 383 0 c329 0 385 2 404
16 29 20 30 76 2 104 -19 19 -33 20 -400 20 l-381 0 -24 -25z"/>
</g>
</svg>
