<?xml version="1.0" standalone="no"?>
<!DOCTYPE svg PUBLIC "-//W3C//DTD SVG 20010904//EN"
 "http://www.w3.org/TR/2001/REC-SVG-20010904/DTD/svg10.dtd">
<svg version="1.0" xmlns="http://www.w3.org/2000/svg"
 width="1300.000000pt" height="1300.000000pt" viewBox="0 0 1300.000000 1300.000000"
 preserveAspectRatio="xMidYMid meet">

<g transform="translate(0.000000,1300.000000) scale(0.100000,-0.100000)"
fill="#000000" stroke="none">
<path d="M3077 10785 c-480 -78 -802 -343 -921 -756 -35 -124 -45 -213 -50
-489 l-5 -245 -26 -18 c-127 -93 -121 -478 13 -742 38 -77 125 -204 181 -267
40 -44 58 -76 82 -145 139 -394 411 -663 769 -759 101 -27 292 -25 394 4 222
64 417 202 566 400 63 84 149 252 185 361 20 61 39 95 67 125 62 66 142 184
191 281 83 166 112 301 105 481 -6 135 -29 206 -80 249 l-30 25 -2 213 c-2
157 -7 233 -20 292 -37 173 -80 271 -155 357 -30 34 -44 62 -57 114 -19 76
-56 158 -101 219 -86 117 -320 232 -583 286 -128 27 -401 34 -523 14z"/>
<path d="M9470 10785 c-471 -70 -784 -316 -920 -723 -45 -137 -60 -267 -60
-532 l0 -233 -39 -34 c-63 -53 -76 -106 -76 -298 0 -165 5 -193 56 -333 45
-123 121 -248 217 -354 51 -56 65 -79 82 -139 26 -85 95 -232 147 -311 154
-233 361 -389 609 -460 118 -34 305 -31 427 6 217 65 397 194 543 386 70 92
159 264 195 375 17 53 37 87 80 137 125 146 212 308 255 475 22 87 25 114 22
248 -4 168 -18 218 -77 270 l-30 28 0 181 c0 331 -53 539 -170 668 -40 44 -50
64 -61 118 -32 155 -131 285 -278 367 -91 51 -255 110 -387 140 -134 30 -397
39 -535 18z"/>
<path d="M6150 9325 c-505 -69 -881 -325 -1070 -728 -116 -248 -140 -392 -140
-834 0 -234 -2 -283 -14 -283 -24 0 -83 -75 -106 -136 -31 -81 -40 -307 -16
-439 43 -246 184 -522 361 -705 32 -33 48 -61 60 -105 61 -216 211 -471 375
-635 123 -124 210 -188 345 -255 178 -87 297 -118 470 -118 505 -3 979 384
1179 961 31 91 44 112 104 182 219 253 352 575 352 855 0 88 -18 220 -37 268
-20 50 -67 114 -91 121 -15 5 -17 29 -17 253 0 260 -6 320 -51 492 -35 134
-89 244 -157 317 -45 49 -59 72 -67 110 -37 191 -129 338 -274 436 -68 47
-233 126 -325 157 -99 34 -249 70 -357 86 -121 18 -391 18 -524 0z m354 -2804
c14 -15 15 -21 4 -27 -7 -4 -10 -3 -5 1 4 5 0 17 -10 27 -9 10 -14 18 -11 18
3 0 13 -9 22 -19z"/>
<path d="M2195 7564 c-502 -205 -858 -366 -999 -453 -157 -97 -326 -260 -429
-414 -190 -284 -330 -713 -357 -1095 -12 -177 -8 -185 135 -242 220 -88 419
-140 830 -220 86 -17 393 -59 545 -74 418 -43 876 -66 1320 -66 l309 0 105 69
c237 153 474 266 1029 485 191 76 347 143 347 148 0 19 -53 144 -88 208 -20
36 -90 148 -156 250 -183 282 -265 475 -307 721 -34 198 -19 402 42 565 12 31
17 60 13 64 -11 11 -225 100 -240 100 -14 0 -9 16 -84 -295 -86 -359 -124
-505 -176 -672 -132 -427 -289 -689 -483 -809 -36 -21 -67 -39 -70 -40 -3 0
-26 -6 -51 -13 -115 -33 -275 -8 -380 59 -59 38 -164 147 -217 225 -162 241
-276 584 -470 1422 -21 91 -32 123 -43 122 -8 0 -64 -21 -125 -45z"/>
<path d="M8505 7534 c-99 -41 -183 -78 -187 -82 -4 -4 5 -45 20 -92 24 -79 26
-99 26 -275 1 -208 -10 -282 -65 -450 -41 -124 -147 -337 -205 -410 -26 -33
-66 -90 -90 -127 -59 -90 -211 -395 -202 -404 2 -1 71 -28 153 -59 205 -77
375 -148 632 -261 373 -163 480 -218 643 -327 l74 -50 521 6 c793 9 1308 50
1850 147 425 77 853 212 901 284 37 57 2 377 -70 638 -90 327 -240 613 -421
806 -139 147 -250 225 -500 346 -216 106 -877 386 -910 386 -6 0 -29 -75 -54
-182 -23 -101 -72 -298 -108 -438 -77 -303 -69 -272 -76 -290 -3 -8 -24 -71
-46 -140 -159 -484 -369 -749 -629 -789 -275 -43 -510 150 -685 559 -101 238
-184 528 -327 1143 -26 108 -36 137 -49 136 -9 0 -97 -34 -196 -75z"/>
<path d="M4980 5331 c-506 -206 -889 -378 -1080 -485 -304 -170 -533 -401
-703 -713 -197 -360 -328 -819 -344 -1205 -8 -206 -8 -207 154 -274 606 -252
1552 -398 2873 -445 301 -11 1049 -7 1250 6 36 2 126 7 200 10 932 39 1853
188 2380 383 180 67 221 86 250 117 23 25 25 34 25 128 0 540 -248 1238 -573
1613 -213 246 -434 383 -1042 649 -286 125 -728 305 -748 305 -7 0 -12 -8 -12
-18 0 -19 -91 -364 -166 -626 -137 -483 -278 -889 -428 -1233 -89 -205 -169
-373 -177 -373 -3 0 -25 118 -48 263 -23 144 -51 312 -61 372 -10 61 -15 111
-12 113 50 19 71 44 81 94 67 342 114 593 118 635 5 46 3 54 -20 77 l-26 26
-454 0 -454 0 -20 -22 c-11 -13 -23 -31 -27 -41 -8 -25 121 -695 140 -725 8
-13 26 -28 40 -34 13 -6 24 -18 24 -25 0 -8 -18 -121 -39 -251 -22 -130 -47
-284 -56 -341 -26 -159 -23 -158 -89 -24 -235 475 -453 1111 -687 2011 -17 67
-37 122 -43 122 -6 -1 -108 -40 -226 -89z m581 -1588 c13 -16 12 -17 -3 -4
-10 7 -18 15 -18 17 0 8 8 3 21 -13z m234 -233 c10 -11 16 -20 13 -20 -3 0
-13 9 -23 20 -10 11 -16 20 -13 20 3 0 13 -9 23 -20z m566 -567 c13 -16 12
-17 -3 -4 -10 7 -18 15 -18 17 0 8 8 3 21 -13z"/>
</g>
</svg>
